<svg width="404" height="221" viewBox="0 0 404 221" fill="none" xmlns="http://www.w3.org/2000/svg">
<rect width="404" height="221" rx="12" fill="url(#paint0_linear_4_22)"/>
<path d="M59.0195 57.8846C58.8062 59.1604 58.3957 60.2692 57.788 61.2109C57.1803 62.1527 56.4377 62.8812 55.5604 63.3963C54.683 63.9115 53.7292 64.169 52.6989 64.169C51.6404 64.169 50.7469 63.9054 50.0185 63.3782C49.294 62.8469 48.7809 62.1024 48.479 61.1445C48.1772 60.1826 48.1329 59.0517 48.3462 57.7518C48.5595 56.476 48.9701 55.3672 49.5778 54.4254C50.1855 53.4837 50.93 52.7552 51.8114 52.2401C52.6928 51.7249 53.6507 51.4673 54.685 51.4673C55.7314 51.4673 56.6168 51.7309 57.3413 52.2582C58.0657 52.7854 58.5808 53.5299 58.8867 54.4918C59.1926 55.4497 59.2369 56.5806 59.0195 57.8846ZM57.9389 57.7518C58.1241 56.649 58.0999 55.7093 57.8665 54.9325C57.6371 54.1558 57.2427 53.5621 56.6832 53.1516C56.1238 52.7371 55.4457 52.5298 54.6488 52.5298C53.8237 52.5298 53.049 52.7431 52.3246 53.1697C51.6001 53.5923 50.9824 54.2041 50.4712 55.005C49.9601 55.8018 49.61 56.7617 49.4208 57.8846C49.2397 58.9833 49.2638 59.9231 49.4933 60.7038C49.7227 61.4806 50.1171 62.0762 50.6765 62.4908C51.2399 62.9013 51.9221 63.1065 52.723 63.1065C53.5521 63.1065 54.3288 62.8932 55.0533 62.4666C55.7777 62.04 56.3935 61.4283 56.9006 60.6314C57.4117 59.8305 57.7578 58.8706 57.9389 57.7518ZM60.7355 64L62.7881 51.6364H63.8687L63.0718 56.4961H63.1684C63.3334 56.2184 63.5528 55.9326 63.8264 55.6388C64.1041 55.3451 64.4462 55.0996 64.8527 54.9023C65.2592 54.7011 65.7462 54.6005 66.3137 54.6005C67.0743 54.6005 67.7082 54.8017 68.2153 55.2042C68.7264 55.6026 69.0826 56.162 69.2838 56.8825C69.4851 57.5988 69.5072 58.4339 69.3502 59.3878C69.1892 60.3456 68.8894 61.1848 68.4507 61.9052C68.012 62.6256 67.4727 63.187 66.8328 63.5895C66.1929 63.992 65.4946 64.1932 64.738 64.1932C64.1746 64.1932 63.7198 64.0926 63.3737 63.8913C63.0316 63.6901 62.77 63.4426 62.5889 63.1488C62.4118 62.851 62.283 62.5612 62.2025 62.2795H62.0697L61.7799 64H60.7355ZM62.5708 59.3697C62.45 60.1183 62.45 60.7823 62.5708 61.3619C62.6955 61.9374 62.939 62.3902 63.3012 62.7202C63.6675 63.0462 64.1504 63.2092 64.7501 63.2092C65.3659 63.2092 65.9152 63.0401 66.3982 62.7021C66.8852 62.36 67.2876 61.8991 67.6056 61.3196C67.9275 60.7401 68.1489 60.0901 68.2696 59.3697C68.3863 58.6573 68.3843 58.0154 68.2636 57.4439C68.1428 56.8724 67.8994 56.4196 67.5331 56.0856C67.1669 55.7475 66.6739 55.5785 66.0541 55.5785C65.4504 55.5785 64.907 55.7415 64.4241 56.0675C63.9452 56.3894 63.5467 56.8362 63.2288 57.4077C62.9108 57.9751 62.6915 58.6291 62.5708 59.3697ZM70.9379 64L72.4834 54.7273H73.5278L73.2863 56.152H73.3648C73.6224 55.6851 74.0067 55.3088 74.5178 55.0231C75.033 54.7333 75.5824 54.5884 76.1659 54.5884C76.2545 54.5884 76.3531 54.5904 76.4617 54.5945C76.5704 54.5945 76.661 54.5985 76.7334 54.6065L76.5463 55.6992C76.498 55.6912 76.4134 55.6791 76.2927 55.663C76.176 55.6469 76.0452 55.6388 75.9003 55.6388C75.4173 55.6388 74.9706 55.7415 74.5601 55.9467C74.1536 56.148 73.8115 56.4277 73.5338 56.7859C73.2602 57.1441 73.0831 57.5526 73.0026 58.0114L72.0125 64H70.9379ZM77.0262 64L78.5716 54.7273H79.6523L78.1068 64H77.0262ZM79.5013 53.1154C79.276 53.1154 79.0848 53.0389 78.9278 52.886C78.7749 52.7331 78.7004 52.5479 78.7045 52.3306C78.7125 52.1254 78.795 51.9483 78.952 51.7994C79.113 51.6464 79.3021 51.57 79.5194 51.57C79.7448 51.57 79.936 51.6484 80.093 51.8054C80.2499 51.9583 80.3244 52.1435 80.3163 52.3608C80.3123 52.5661 80.2298 52.7431 80.0688 52.892C79.9078 53.041 79.7187 53.1154 79.5013 53.1154ZM83.9068 67.6705C83.2749 67.6705 82.7336 67.5879 82.2828 67.4229C81.8321 67.262 81.4658 67.0406 81.1841 66.7589C80.9064 66.4772 80.7032 66.1612 80.5744 65.8111L81.5524 65.2376C81.6409 65.471 81.7757 65.7004 81.9569 65.9258C82.138 66.1512 82.3935 66.3363 82.7235 66.4812C83.0536 66.6301 83.4862 66.7045 84.0215 66.7045C84.8385 66.7045 85.5408 66.4973 86.1284 66.0827C86.716 65.6722 87.0822 65.0363 87.2271 64.1751L87.5531 62.0863H87.4565C87.2915 62.368 87.0701 62.6497 86.7924 62.9315C86.5147 63.2092 86.1706 63.4406 85.7601 63.6257C85.3536 63.8108 84.8727 63.9034 84.3173 63.9034C83.5768 63.9034 82.9489 63.7203 82.4338 63.354C81.9186 62.9878 81.5544 62.4646 81.3411 61.7844C81.1278 61.1003 81.1016 60.2853 81.2626 59.3395C81.4155 58.4018 81.7093 57.5767 82.144 56.8643C82.5827 56.152 83.122 55.5966 83.7619 55.1982C84.4058 54.7997 85.1101 54.6005 85.8748 54.6005C86.4423 54.6005 86.8971 54.7011 87.2392 54.9023C87.5813 55.0996 87.8409 55.3451 88.0179 55.6388C88.199 55.9326 88.3298 56.2184 88.4103 56.4961H88.519L88.8088 54.7273H89.8592L88.2896 64.2415C88.1568 65.0263 87.8831 65.6722 87.4686 66.1793C87.054 66.6864 86.5389 67.0607 85.9231 67.3022C85.3114 67.5477 84.6393 67.6705 83.9068 67.6705ZM84.5588 62.9194C85.1544 62.9194 85.6897 62.7765 86.1646 62.4908C86.6435 62.201 87.044 61.7885 87.3659 61.2532C87.6919 60.7139 87.9153 60.07 88.036 59.3214C88.1568 58.5969 88.1507 57.955 88.0179 57.3956C87.8891 56.8321 87.6376 56.3894 87.2633 56.0675C86.8931 55.7415 86.4061 55.5785 85.8024 55.5785C85.1786 55.5785 84.6272 55.7455 84.1483 56.0795C83.6734 56.4136 83.281 56.8643 82.9711 57.4318C82.6652 57.9953 82.4539 58.6251 82.3372 59.3214C82.2245 60.0297 82.2285 60.6555 82.3493 61.1989C82.474 61.7382 82.7195 62.1607 83.0858 62.4666C83.452 62.7685 83.943 62.9194 84.5588 62.9194ZM93.7243 64.2113C93.1649 64.2113 92.6719 64.1026 92.2453 63.8853C91.8187 63.6639 91.5007 63.346 91.2915 62.9315C91.0862 62.5129 91.0299 62.0058 91.1224 61.4102C91.2029 60.9513 91.3559 60.565 91.5812 60.2511C91.8106 59.9371 92.1004 59.6796 92.4506 59.4783C92.8007 59.2731 93.2032 59.1121 93.6579 58.9954C94.1127 58.8787 94.6077 58.7901 95.143 58.7298C95.6662 58.6654 96.113 58.609 96.4832 58.5607C96.8535 58.5124 97.1412 58.436 97.3465 58.3313C97.5518 58.2267 97.6745 58.0576 97.7148 57.8242L97.751 57.6069C97.8556 56.975 97.759 56.478 97.4612 56.1158C97.1634 55.7495 96.6643 55.5664 95.964 55.5664C95.296 55.5664 94.7164 55.7153 94.2254 56.0131C93.7384 56.3069 93.3762 56.651 93.1388 57.0455L92.1849 56.6772C92.4747 56.1701 92.8309 55.7656 93.2535 55.4638C93.676 55.1579 94.1288 54.9386 94.6118 54.8058C95.0947 54.6689 95.5716 54.6005 96.0425 54.6005C96.3967 54.6005 96.7569 54.6468 97.1231 54.7393C97.4894 54.8319 97.8174 54.9929 98.1072 55.2223C98.401 55.4477 98.6163 55.7636 98.7531 56.1701C98.894 56.5726 98.9141 57.0837 98.8135 57.7035L97.7631 64H96.6885L96.936 62.533H96.8696C96.7006 62.8067 96.4671 63.0723 96.1693 63.3299C95.8755 63.5875 95.5233 63.7988 95.1128 63.9638C94.7023 64.1288 94.2395 64.2113 93.7243 64.2113ZM93.996 63.2273C94.5675 63.2273 95.0847 63.1005 95.5475 62.8469C96.0144 62.5934 96.3967 62.2573 96.6945 61.8388C96.9964 61.4162 97.1895 60.9513 97.2741 60.4442L97.4974 59.104C97.4089 59.1805 97.264 59.2489 97.0628 59.3093C96.8656 59.3697 96.6422 59.424 96.3927 59.4723C96.1472 59.5166 95.8997 59.5548 95.6501 59.587C95.4046 59.6192 95.1873 59.6474 94.9981 59.6715C94.4629 59.7359 93.996 59.8365 93.5976 59.9734C93.2032 60.1102 92.8872 60.2994 92.6498 60.5408C92.4123 60.7783 92.2634 61.0842 92.203 61.4585C92.1105 62.0219 92.2332 62.4586 92.5713 62.7685C92.9134 63.0743 93.3883 63.2273 93.996 63.2273ZM103.942 64.1932C103.181 64.1932 102.547 63.992 102.04 63.5895C101.533 63.187 101.179 62.6256 100.978 61.9052C100.776 61.1848 100.754 60.3456 100.911 59.3878C101.072 58.4339 101.372 57.5988 101.811 56.8825C102.254 56.162 102.795 55.6026 103.435 55.2042C104.079 54.8017 104.781 54.6005 105.542 54.6005C106.109 54.6005 106.562 54.7011 106.9 54.9023C107.242 55.0996 107.502 55.3451 107.679 55.6388C107.856 55.9326 107.983 56.2184 108.059 56.4961H108.156L108.965 51.6364H110.045L107.993 64H106.948L107.238 62.2795H107.105C106.932 62.5612 106.705 62.851 106.423 63.1488C106.145 63.4426 105.803 63.6901 105.397 63.8913C104.99 64.0926 104.505 64.1932 103.942 64.1932ZM104.177 63.2092C104.777 63.2092 105.318 63.0462 105.801 62.7202C106.288 62.3902 106.695 61.9374 107.021 61.3619C107.351 60.7823 107.576 60.1183 107.697 59.3697C107.822 58.6291 107.82 57.9751 107.691 57.4077C107.562 56.8362 107.312 56.3894 106.942 56.0675C106.572 55.7415 106.083 55.5785 105.475 55.5785C104.859 55.5785 104.312 55.7475 103.833 56.0856C103.354 56.4196 102.958 56.8724 102.644 57.4439C102.334 58.0154 102.119 58.6573 101.998 59.3697C101.881 60.0901 101.881 60.7401 101.998 61.3196C102.115 61.8991 102.352 62.36 102.71 62.7021C103.073 63.0401 103.562 63.2092 104.177 63.2092ZM114.694 64.1932C113.881 64.1932 113.196 63.9879 112.641 63.5774C112.086 63.1629 111.693 62.5894 111.464 61.8569C111.234 61.1244 111.196 60.2792 111.349 59.3214C111.502 58.3877 111.806 57.5666 112.261 56.8583C112.72 56.146 113.283 55.5926 113.951 55.1982C114.619 54.7997 115.346 54.6005 116.13 54.6005C116.947 54.6005 117.632 54.8078 118.183 55.2223C118.738 55.6368 119.131 56.2103 119.36 56.9428C119.594 57.6753 119.634 58.5225 119.481 59.4844C119.328 60.4141 119.022 61.2331 118.563 61.9414C118.104 62.6457 117.541 63.1971 116.873 63.5955C116.209 63.994 115.482 64.1932 114.694 64.1932ZM114.706 63.2092C115.366 63.2092 115.953 63.0341 116.468 62.6839C116.988 62.3298 117.416 61.8589 117.754 61.2713C118.092 60.6797 118.32 60.0297 118.437 59.3214C118.545 58.6452 118.533 58.0234 118.4 57.456C118.267 56.8885 118.012 56.4337 117.634 56.0916C117.255 55.7495 116.752 55.5785 116.124 55.5785C115.468 55.5785 114.881 55.7576 114.362 56.1158C113.842 56.4699 113.414 56.9448 113.076 57.5405C112.738 58.1321 112.512 58.7801 112.4 59.4844C112.287 60.1645 112.295 60.7863 112.424 61.3498C112.557 61.9132 112.812 62.364 113.19 62.7021C113.573 63.0401 114.078 63.2092 114.706 63.2092ZM125.598 67.4773V54.7273H128.52V56.315H128.61C128.731 56.0333 128.902 55.7616 129.123 55.5C129.349 55.2384 129.635 55.0251 129.981 54.8601C130.331 54.6911 130.749 54.6065 131.236 54.6065C131.88 54.6065 132.482 54.7756 133.041 55.1136C133.605 55.4517 134.06 55.9729 134.406 56.6772C134.752 57.3815 134.925 58.279 134.925 59.3697C134.925 60.4201 134.758 61.2995 134.424 62.0078C134.094 62.7161 133.647 63.2474 133.084 63.6016C132.524 63.9557 131.902 64.1328 131.218 64.1328C130.751 64.1328 130.347 64.0563 130.005 63.9034C129.663 63.7505 129.375 63.5492 129.142 63.2997C128.912 63.0502 128.735 62.7826 128.61 62.4968H128.55V67.4773H125.598ZM128.49 59.3636C128.49 59.8627 128.556 60.2973 128.689 60.6676C128.826 61.0379 129.021 61.3256 129.274 61.5309C129.532 61.7321 129.84 61.8327 130.198 61.8327C130.56 61.8327 130.868 61.7321 131.122 61.5309C131.375 61.3256 131.566 61.0379 131.695 60.6676C131.828 60.2973 131.894 59.8627 131.894 59.3636C131.894 58.8646 131.828 58.4319 131.695 58.0657C131.566 57.6995 131.375 57.4157 131.122 57.2145C130.872 57.0133 130.564 56.9126 130.198 56.9126C129.836 56.9126 129.528 57.0112 129.274 57.2085C129.021 57.4057 128.826 57.6874 128.689 58.0536C128.556 58.4199 128.49 58.8565 128.49 59.3636ZM140.8 64.1751C139.826 64.1751 138.989 63.9759 138.289 63.5774C137.593 63.175 137.055 62.6155 136.677 61.8991C136.303 61.1787 136.116 60.3436 136.116 59.3938C136.116 58.44 136.303 57.6049 136.677 56.8885C137.055 56.1681 137.593 55.6087 138.289 55.2102C138.989 54.8078 139.826 54.6065 140.8 54.6065C141.774 54.6065 142.609 54.8078 143.306 55.2102C144.006 55.6087 144.543 56.1681 144.918 56.8885C145.296 57.6049 145.485 58.44 145.485 59.3938C145.485 60.3436 145.296 61.1787 144.918 61.8991C144.543 62.6155 144.006 63.175 143.306 63.5774C142.609 63.9759 141.774 64.1751 140.8 64.1751ZM140.818 61.9474C141.173 61.9474 141.472 61.8388 141.718 61.6214C141.963 61.4041 142.151 61.1023 142.279 60.7159C142.412 60.3295 142.479 59.8828 142.479 59.3757C142.479 58.8606 142.412 58.4098 142.279 58.0234C142.151 57.6371 141.963 57.3352 141.718 57.1179C141.472 56.9006 141.173 56.7919 140.818 56.7919C140.452 56.7919 140.142 56.9006 139.889 57.1179C139.639 57.3352 139.448 57.6371 139.315 58.0234C139.186 58.4098 139.122 58.8606 139.122 59.3757C139.122 59.8828 139.186 60.3295 139.315 60.7159C139.448 61.1023 139.639 61.4041 139.889 61.6214C140.142 61.8388 140.452 61.9474 140.818 61.9474ZM146.997 64V54.7273H149.865V56.4176H149.961C150.13 55.8059 150.406 55.3511 150.788 55.0533C151.171 54.7514 151.616 54.6005 152.123 54.6005C152.259 54.6005 152.4 54.6106 152.545 54.6307C152.69 54.6468 152.825 54.6729 152.95 54.7092V57.2749C152.809 57.2266 152.624 57.1883 152.394 57.1602C152.169 57.132 151.968 57.1179 151.791 57.1179C151.44 57.1179 151.124 57.1964 150.843 57.3533C150.565 57.5063 150.346 57.7216 150.185 57.9993C150.028 58.273 149.949 58.5949 149.949 58.9652V64H146.997ZM163.039 54.7273V56.9006H157.189V54.7273H163.039ZM158.415 52.5057H161.367V61.0842C161.367 61.2653 161.395 61.4122 161.451 61.5249C161.512 61.6335 161.598 61.712 161.711 61.7603C161.823 61.8046 161.958 61.8267 162.115 61.8267C162.228 61.8267 162.347 61.8166 162.471 61.7965C162.6 61.7724 162.697 61.7522 162.761 61.7362L163.208 63.8672C163.067 63.9074 162.868 63.9577 162.61 64.0181C162.357 64.0785 162.053 64.1167 161.699 64.1328C161.006 64.165 160.413 64.0845 159.918 63.8913C159.427 63.6941 159.05 63.3883 158.789 62.9737C158.531 62.5592 158.407 62.038 158.415 61.4102V52.5057ZM170.528 59.9975V54.7273H173.474V64H170.661V62.2734H170.564C170.359 62.8409 170.009 63.2917 169.513 63.6257C169.022 63.9557 168.429 64.1207 167.733 64.1207C167.101 64.1207 166.545 63.9759 166.066 63.6861C165.587 63.3963 165.215 62.9918 164.95 62.4727C164.684 61.9495 164.549 61.3377 164.545 60.6374V54.7273H167.497V60.0579C167.501 60.561 167.634 60.9574 167.896 61.2472C168.157 61.5369 168.513 61.6818 168.964 61.6818C169.258 61.6818 169.522 61.6174 169.755 61.4886C169.992 61.3558 170.18 61.1647 170.316 60.9151C170.457 60.6616 170.528 60.3557 170.528 59.9975ZM178.739 64.1328C178.055 64.1328 177.433 63.9557 176.874 63.6016C176.315 63.2474 175.868 62.7161 175.534 62.0078C175.2 61.2995 175.033 60.4201 175.033 59.3697C175.033 58.279 175.206 57.3815 175.552 56.6772C175.898 55.9729 176.351 55.4517 176.91 55.1136C177.474 54.7756 178.079 54.6065 178.727 54.6065C179.214 54.6065 179.631 54.6911 179.977 54.8601C180.323 55.0251 180.609 55.2384 180.834 55.5C181.06 55.7616 181.231 56.0333 181.347 56.315H181.408V51.6364H184.36V64H181.438V62.4968H181.347C181.223 62.7826 181.046 63.0502 180.816 63.2997C180.587 63.5492 180.299 63.7505 179.953 63.9034C179.611 64.0563 179.206 64.1328 178.739 64.1328ZM179.766 61.8327C180.124 61.8327 180.43 61.7321 180.683 61.5309C180.937 61.3256 181.132 61.0379 181.269 60.6676C181.406 60.2973 181.474 59.8627 181.474 59.3636C181.474 58.8565 181.406 58.4199 181.269 58.0536C181.136 57.6874 180.941 57.4057 180.683 57.2085C180.43 57.0112 180.124 56.9126 179.766 56.9126C179.399 56.9126 179.09 57.0133 178.836 57.2145C178.582 57.4157 178.389 57.6995 178.256 58.0657C178.128 58.4319 178.063 58.8646 178.063 59.3636C178.063 59.8627 178.13 60.2973 178.263 60.6676C178.395 61.0379 178.586 61.3256 178.836 61.5309C179.09 61.7321 179.399 61.8327 179.766 61.8327ZM190.555 64.1751C189.581 64.1751 188.744 63.9759 188.044 63.5774C187.348 63.175 186.81 62.6155 186.432 61.8991C186.058 61.1787 185.871 60.3436 185.871 59.3938C185.871 58.44 186.058 57.6049 186.432 56.8885C186.81 56.1681 187.348 55.6087 188.044 55.2102C188.744 54.8078 189.581 54.6065 190.555 54.6065C191.529 54.6065 192.364 54.8078 193.061 55.2102C193.761 55.6087 194.298 56.1681 194.672 56.8885C195.051 57.6049 195.24 58.44 195.24 59.3938C195.24 60.3436 195.051 61.1787 194.672 61.8991C194.298 62.6155 193.761 63.175 193.061 63.5774C192.364 63.9759 191.529 64.1751 190.555 64.1751ZM190.573 61.9474C190.927 61.9474 191.227 61.8388 191.473 61.6214C191.718 61.4041 191.905 61.1023 192.034 60.7159C192.167 60.3295 192.233 59.8828 192.233 59.3757C192.233 58.8606 192.167 58.4098 192.034 58.0234C191.905 57.6371 191.718 57.3352 191.473 57.1179C191.227 56.9006 190.927 56.7919 190.573 56.7919C190.207 56.7919 189.897 56.9006 189.644 57.1179C189.394 57.3352 189.203 57.6371 189.07 58.0234C188.941 58.4098 188.877 58.8606 188.877 59.3757C188.877 59.8828 188.941 60.3295 189.07 60.7159C189.203 61.1023 189.394 61.4041 189.644 61.6214C189.897 61.8388 190.207 61.9474 190.573 61.9474ZM200.223 51.6364L199.946 60.2148H197.464L197.187 51.6364H200.223ZM198.702 64.1751C198.271 64.1751 197.901 64.0221 197.591 63.7163C197.285 63.4104 197.132 63.0401 197.132 62.6055C197.132 62.1789 197.285 61.8146 197.591 61.5128C197.901 61.2069 198.271 61.054 198.702 61.054C199.117 61.054 199.481 61.2069 199.795 61.5128C200.113 61.8146 200.272 62.1789 200.272 62.6055C200.272 62.8952 200.197 63.1589 200.048 63.3963C199.903 63.6338 199.712 63.8229 199.475 63.9638C199.241 64.1046 198.984 64.1751 198.702 64.1751ZM47.5312 75.0632V72.6364H57.9812V75.0632H54.2322V85H51.2862V75.0632H47.5312ZM62.4304 85.1751C61.4605 85.1751 60.6233 84.9839 59.919 84.6016C59.2188 84.2152 58.6795 83.6658 58.3011 82.9535C57.9268 82.2371 57.7397 81.3859 57.7397 80.3999C57.7397 79.442 57.9289 78.6049 58.3072 77.8885C58.6855 77.1681 59.2188 76.6087 59.907 76.2102C60.5952 75.8078 61.4061 75.6065 62.3398 75.6065C62.9999 75.6065 63.6036 75.7092 64.1509 75.9144C64.6983 76.1197 65.1712 76.4235 65.5696 76.826C65.968 77.2285 66.2779 77.7255 66.4993 78.3171C66.7206 78.9047 66.8313 79.5788 66.8313 80.3395V81.076H58.772V79.3615H64.0845C64.0805 79.0476 64.006 78.7679 63.8612 78.5224C63.7163 78.2769 63.517 78.0857 63.2635 77.9489C63.014 77.808 62.7262 77.7376 62.4002 77.7376C62.0702 77.7376 61.7744 77.812 61.5128 77.9609C61.2512 78.1058 61.0439 78.305 60.891 78.5586C60.738 78.8081 60.6576 79.0919 60.6495 79.4098V81.1545C60.6495 81.5328 60.724 81.8648 60.8729 82.1506C61.0218 82.4323 61.2331 82.6516 61.5067 82.8086C61.7804 82.9656 62.1064 83.044 62.4847 83.044C62.7463 83.044 62.9838 83.0078 63.1971 82.9354C63.4104 82.8629 63.5935 82.7563 63.7464 82.6154C63.8994 82.4746 64.0141 82.3015 64.0906 82.0962L66.8011 82.1747C66.6884 82.7824 66.4409 83.3117 66.0586 83.7624C65.6803 84.2092 65.1832 84.5573 64.5675 84.8068C63.9517 85.0523 63.2393 85.1751 62.4304 85.1751ZM74.6054 85.157C74.0138 85.157 73.4885 85.0584 73.0297 84.8612C72.575 84.6599 72.2148 84.3581 71.9491 83.9556C71.6875 83.5491 71.5567 83.04 71.5567 82.4283C71.5567 81.9131 71.6473 81.4785 71.8284 81.1243C72.0095 80.7701 72.259 80.4824 72.577 80.261C72.8949 80.0397 73.2612 79.8726 73.6757 79.7599C74.0902 79.6432 74.5329 79.5647 75.0038 79.5245C75.531 79.4762 75.9556 79.4259 76.2776 79.3736C76.5996 79.3172 76.833 79.2388 76.9779 79.1381C77.1268 79.0335 77.2013 78.8866 77.2013 78.6974V78.6673C77.2013 78.3574 77.0946 78.1179 76.8813 77.9489C76.668 77.7798 76.3802 77.6953 76.018 77.6953C75.6276 77.6953 75.3137 77.7798 75.0763 77.9489C74.8388 78.1179 74.6879 78.3513 74.6235 78.6491L71.9008 78.5526C71.9813 77.9891 72.1886 77.486 72.5226 77.0433C72.8607 76.5966 73.3235 76.2464 73.9111 75.9929C74.5028 75.7353 75.2131 75.6065 76.0422 75.6065C76.6338 75.6065 77.1791 75.677 77.6782 75.8178C78.1772 75.9547 78.6119 76.1559 78.9822 76.4215C79.3524 76.6831 79.6382 77.0051 79.8394 77.3874C80.0447 77.7698 80.1473 78.2064 80.1473 78.6974V85H77.3703V83.7081H77.2979C77.1328 84.022 76.9215 84.2876 76.664 84.505C76.4104 84.7223 76.1106 84.8853 75.7645 84.994C75.4224 85.1026 75.036 85.157 74.6054 85.157ZM75.517 83.2251C75.8349 83.2251 76.1207 83.1607 76.3742 83.032C76.6318 82.9032 76.837 82.7261 76.99 82.5007C77.1429 82.2713 77.2194 82.0057 77.2194 81.7038V80.8224C77.1349 80.8667 77.0322 80.907 76.9115 80.9432C76.7948 80.9794 76.666 81.0136 76.5251 81.0458C76.3843 81.078 76.2394 81.1062 76.0905 81.1303C75.9416 81.1545 75.7987 81.1766 75.6618 81.1967C75.3841 81.241 75.1467 81.3094 74.9495 81.402C74.7563 81.4946 74.6074 81.6153 74.5028 81.7642C74.4021 81.9091 74.3518 82.0821 74.3518 82.2834C74.3518 82.5893 74.4605 82.8227 74.6778 82.9837C74.8992 83.1446 75.1789 83.2251 75.517 83.2251ZM81.9523 85V75.7273H84.7595V77.4297H84.8621C85.0553 76.8662 85.3813 76.4215 85.8401 76.0955C86.2989 75.7695 86.8463 75.6065 87.4822 75.6065C88.1261 75.6065 88.6775 75.7715 89.1363 76.1016C89.5951 76.4316 89.8869 76.8743 90.0116 77.4297H90.1082C90.2813 76.8783 90.6193 76.4376 91.1224 76.1076C91.6255 75.7736 92.2191 75.6065 92.9033 75.6065C93.7807 75.6065 94.493 75.8883 95.0404 76.4517C95.5877 77.0111 95.8614 77.7798 95.8614 78.7578V85H92.9094V79.4339C92.9094 78.9711 92.7906 78.619 92.5532 78.3775C92.3157 78.132 92.0078 78.0092 91.6295 78.0092C91.223 78.0092 90.9031 78.142 90.6697 78.4077C90.4403 78.6693 90.3256 79.0214 90.3256 79.4641V85H87.4882V79.4038C87.4882 78.9731 87.3715 78.633 87.1381 78.3835C86.9046 78.134 86.5967 78.0092 86.2144 78.0092C85.9568 78.0092 85.7294 78.0716 85.5322 78.1964C85.335 78.3171 85.1801 78.4902 85.0674 78.7156C84.9587 78.9409 84.9044 79.2066 84.9044 79.5124V85H81.9523ZM102.019 85.1751C101.045 85.1751 100.208 84.9759 99.5077 84.5774C98.8115 84.175 98.2742 83.6155 97.8959 82.8991C97.5216 82.1787 97.3344 81.3436 97.3344 80.3938C97.3344 79.44 97.5216 78.6049 97.8959 77.8885C98.2742 77.1681 98.8115 76.6087 99.5077 76.2102C100.208 75.8078 101.045 75.6065 102.019 75.6065C102.993 75.6065 103.828 75.8078 104.524 76.2102C105.225 76.6087 105.762 77.1681 106.136 77.8885C106.515 78.6049 106.704 79.44 106.704 80.3938C106.704 81.3436 106.515 82.1787 106.136 82.8991C105.762 83.6155 105.225 84.175 104.524 84.5774C103.828 84.9759 102.993 85.1751 102.019 85.1751ZM102.037 82.9474C102.391 82.9474 102.691 82.8388 102.937 82.6214C103.182 82.4041 103.369 82.1023 103.498 81.7159C103.631 81.3295 103.697 80.8828 103.697 80.3757C103.697 79.8606 103.631 79.4098 103.498 79.0234C103.369 78.6371 103.182 78.3352 102.937 78.1179C102.691 77.9006 102.391 77.7919 102.037 77.7919C101.671 77.7919 101.361 77.9006 101.108 78.1179C100.858 78.3352 100.667 78.6371 100.534 79.0234C100.405 79.4098 100.341 79.8606 100.341 80.3757C100.341 80.8828 100.405 81.3295 100.534 81.7159C100.667 82.1023 100.858 82.4041 101.108 82.6214C101.361 82.8388 101.671 82.9474 102.037 82.9474ZM115.303 85.1932C114.438 85.1932 113.724 84.992 113.16 84.5895C112.597 84.183 112.202 83.6216 111.977 82.9052C111.752 82.1848 111.717 81.3557 111.874 80.418C112.031 79.4843 112.341 78.6552 112.804 77.9308C113.267 77.2023 113.838 76.6328 114.519 76.2223C115.199 75.8078 115.937 75.6005 116.734 75.6005C117.237 75.6005 117.708 75.6931 118.147 75.8782C118.585 76.0593 118.958 76.339 119.264 76.7173C119.573 77.0916 119.789 77.5645 119.91 78.136C120.03 78.7035 120.026 79.3756 119.897 80.1523L119.813 80.6836H112.569L112.72 79.7358H118.871C118.972 79.1402 118.944 78.6049 118.787 78.13C118.63 77.6551 118.362 77.2788 117.984 77.0011C117.609 76.7193 117.145 76.5785 116.589 76.5785C116.022 76.5785 115.484 76.7375 114.977 77.0554C114.474 77.3733 114.048 77.7879 113.698 78.299C113.351 78.8061 113.128 79.3474 113.027 79.9229L112.907 80.6353C112.778 81.4201 112.794 82.0781 112.955 82.6094C113.116 83.1366 113.408 83.535 113.83 83.8047C114.253 84.0743 114.794 84.2092 115.454 84.2092C115.897 84.2092 116.297 84.1407 116.656 84.0039C117.014 83.8671 117.326 83.6839 117.591 83.4545C117.857 83.2211 118.07 82.9656 118.231 82.6879L119.191 83.0199C118.986 83.4103 118.696 83.7705 118.322 84.1005C117.952 84.4305 117.511 84.6961 117 84.8974C116.493 85.0946 115.927 85.1932 115.303 85.1932ZM134.394 75.7273L131.212 85H127.831L124.656 75.7273H127.765L129.474 82.1143H129.57L131.285 75.7273H134.394ZM139.555 85.1751C138.581 85.1751 137.744 84.9759 137.044 84.5774C136.348 84.175 135.81 83.6155 135.432 82.8991C135.058 82.1787 134.871 81.3436 134.871 80.3938C134.871 79.44 135.058 78.6049 135.432 77.8885C135.81 77.1681 136.348 76.6087 137.044 76.2102C137.744 75.8078 138.581 75.6065 139.555 75.6065C140.529 75.6065 141.364 75.8078 142.061 76.2102C142.761 76.6087 143.298 77.1681 143.672 77.8885C144.051 78.6049 144.24 79.44 144.24 80.3938C144.24 81.3436 144.051 82.1787 143.672 82.8991C143.298 83.6155 142.761 84.175 142.061 84.5774C141.364 84.9759 140.529 85.1751 139.555 85.1751ZM139.573 82.9474C139.927 82.9474 140.227 82.8388 140.473 82.6214C140.718 82.4041 140.905 82.1023 141.034 81.7159C141.167 81.3295 141.233 80.8828 141.233 80.3757C141.233 79.8606 141.167 79.4098 141.034 79.0234C140.905 78.6371 140.718 78.3352 140.473 78.1179C140.227 77.9006 139.927 77.7919 139.573 77.7919C139.207 77.7919 138.897 77.9006 138.644 78.1179C138.394 78.3352 138.203 78.6371 138.07 79.0234C137.941 79.4098 137.877 79.8606 137.877 80.3757C137.877 80.8828 137.941 81.3295 138.07 81.7159C138.203 82.1023 138.394 82.4041 138.644 82.6214C138.897 82.8388 139.207 82.9474 139.573 82.9474ZM150.081 85.1751C149.103 85.1751 148.263 84.9738 147.563 84.5714C146.867 84.1689 146.332 83.6095 145.957 82.8931C145.583 82.1727 145.396 81.3396 145.396 80.3938C145.396 79.444 145.583 78.6109 145.957 77.8945C146.336 77.1741 146.873 76.6127 147.569 76.2102C148.27 75.8078 149.105 75.6065 150.075 75.6065C150.932 75.6065 151.678 75.7615 152.314 76.0714C152.954 76.3813 153.453 76.82 153.811 77.3874C154.174 77.9509 154.365 78.6129 154.385 79.3736H151.626C151.57 78.8987 151.409 78.5264 151.143 78.2567C150.882 77.9871 150.539 77.8523 150.117 77.8523C149.775 77.8523 149.475 77.9489 149.217 78.142C148.96 78.3312 148.759 78.6129 148.614 78.9872C148.473 79.3575 148.402 79.8163 148.402 80.3636C148.402 80.911 148.473 81.3738 148.614 81.7521C148.759 82.1264 148.96 82.4102 149.217 82.6033C149.475 82.7925 149.775 82.8871 150.117 82.8871C150.391 82.8871 150.632 82.8287 150.841 82.712C151.055 82.5953 151.23 82.4242 151.366 82.1989C151.503 81.9695 151.59 81.6918 151.626 81.3658H154.385C154.357 82.1304 154.166 82.7985 153.811 83.37C153.461 83.9415 152.968 84.3862 152.332 84.7042C151.701 85.0181 150.95 85.1751 150.081 85.1751ZM160.23 85.1751C159.26 85.1751 158.423 84.9839 157.719 84.6016C157.019 84.2152 156.479 83.6658 156.101 82.9535C155.727 82.2371 155.54 81.3859 155.54 80.3999C155.54 79.442 155.729 78.6049 156.107 77.8885C156.485 77.1681 157.019 76.6087 157.707 76.2102C158.395 75.8078 159.206 75.6065 160.14 75.6065C160.8 75.6065 161.403 75.7092 161.951 75.9144C162.498 76.1197 162.971 76.4235 163.369 76.826C163.768 77.2285 164.078 77.7255 164.299 78.3171C164.52 78.9047 164.631 79.5788 164.631 80.3395V81.076H156.572V79.3615H161.884C161.88 79.0476 161.806 78.7679 161.661 78.5224C161.516 78.2769 161.317 78.0857 161.063 77.9489C160.814 77.808 160.526 77.7376 160.2 77.7376C159.87 77.7376 159.574 77.812 159.313 77.9609C159.051 78.1058 158.844 78.305 158.691 78.5586C158.538 78.8081 158.457 79.0919 158.449 79.4098V81.1545C158.449 81.5328 158.524 81.8648 158.673 82.1506C158.822 82.4323 159.033 82.6516 159.307 82.8086C159.58 82.9656 159.906 83.044 160.285 83.044C160.546 83.044 160.784 83.0078 160.997 82.9354C161.21 82.8629 161.393 82.7563 161.546 82.6154C161.699 82.4746 161.814 82.3015 161.89 82.0962L164.601 82.1747C164.488 82.7824 164.241 83.3117 163.858 83.7624C163.48 84.2092 162.983 84.5573 162.367 84.8068C161.752 85.0523 161.039 85.1751 160.23 85.1751ZM161.287 74.6165L160.085 73.2159L158.89 74.6165H156.415V74.538L159.029 71.8335H161.148L163.756 74.538V74.6165H161.287ZM174.126 85.1751C173.156 85.1751 172.319 84.9839 171.614 84.6016C170.914 84.2152 170.375 83.6658 169.996 82.9535C169.622 82.2371 169.435 81.3859 169.435 80.3999C169.435 79.442 169.624 78.6049 170.002 77.8885C170.381 77.1681 170.914 76.6087 171.602 76.2102C172.29 75.8078 173.101 75.6065 174.035 75.6065C174.695 75.6065 175.299 75.7092 175.846 75.9144C176.394 76.1197 176.866 76.4235 177.265 76.826C177.663 77.2285 177.973 77.7255 178.195 78.3171C178.416 78.9047 178.527 79.5788 178.527 80.3395V81.076H170.467V79.3615H175.78C175.776 79.0476 175.701 78.7679 175.556 78.5224C175.412 78.2769 175.212 78.0857 174.959 77.9489C174.709 77.808 174.422 77.7376 174.096 77.7376C173.766 77.7376 173.47 77.812 173.208 77.9609C172.946 78.1058 172.739 78.305 172.586 78.5586C172.433 78.8081 172.353 79.0919 172.345 79.4098V81.1545C172.345 81.5328 172.419 81.8648 172.568 82.1506C172.717 82.4323 172.928 82.6516 173.202 82.8086C173.476 82.9656 173.802 83.044 174.18 83.044C174.442 83.044 174.679 83.0078 174.892 82.9354C175.106 82.8629 175.289 82.7563 175.442 82.6154C175.595 82.4746 175.709 82.3015 175.786 82.0962L178.496 82.1747C178.384 82.7824 178.136 83.3117 177.754 83.7624C177.376 84.2092 176.879 84.5573 176.263 84.8068C175.647 85.0523 174.935 85.1751 174.126 85.1751ZM172.967 74.5501L174.186 71.8274H176.8L174.977 74.5501H172.967ZM183.687 85V75.7273H186.494V77.4297H186.597C186.79 76.8662 187.116 76.4215 187.574 76.0955C188.033 75.7695 188.581 75.6065 189.217 75.6065C189.86 75.6065 190.412 75.7715 190.871 76.1016C191.329 76.4316 191.621 76.8743 191.746 77.4297H191.843C192.016 76.8783 192.354 76.4376 192.857 76.1076C193.36 75.7736 193.954 75.6065 194.638 75.6065C195.515 75.6065 196.227 75.8883 196.775 76.4517C197.322 77.0111 197.596 77.7798 197.596 78.7578V85H194.644V79.4339C194.644 78.9711 194.525 78.619 194.288 78.3775C194.05 78.132 193.742 78.0092 193.364 78.0092C192.957 78.0092 192.637 78.142 192.404 78.4077C192.175 78.6693 192.06 79.0214 192.06 79.4641V85H189.223V79.4038C189.223 78.9731 189.106 78.633 188.872 78.3835C188.639 78.134 188.331 78.0092 187.949 78.0092C187.691 78.0092 187.464 78.0716 187.267 78.1964C187.069 78.3171 186.914 78.4902 186.802 78.7156C186.693 78.9409 186.639 79.2066 186.639 79.5124V85H183.687ZM199.425 85V75.7273H202.377V85H199.425ZM200.904 74.6467C200.489 74.6467 200.133 74.5098 199.835 74.2362C199.538 73.9585 199.389 73.6244 199.389 73.234C199.389 72.8477 199.538 72.5176 199.835 72.244C200.133 71.9663 200.489 71.8274 200.904 71.8274C201.323 71.8274 201.679 71.9663 201.973 72.244C202.27 72.5176 202.419 72.8477 202.419 73.234C202.419 73.6244 202.27 73.9585 201.973 74.2362C201.679 74.5098 201.323 74.6467 200.904 74.6467ZM207.208 79.7116V85H204.256V75.7273H207.063V77.4297H207.166C207.371 76.8622 207.721 76.4175 208.216 76.0955C208.711 75.7695 209.301 75.6065 209.985 75.6065C210.637 75.6065 211.203 75.7534 211.681 76.0472C212.164 76.337 212.539 76.7435 212.804 77.2667C213.074 77.7859 213.207 78.3936 213.203 79.0898V85H210.251V79.6694C210.255 79.1542 210.124 78.7518 209.858 78.462C209.597 78.1722 209.232 78.0273 208.766 78.0273C208.456 78.0273 208.182 78.0958 207.945 78.2326C207.711 78.3654 207.53 78.5566 207.401 78.8061C207.277 79.0556 207.212 79.3575 207.208 79.7116ZM217.983 79.7116V85H215.03V72.6364H217.886V77.4297H217.989C218.198 76.8582 218.54 76.4115 219.015 76.0895C219.494 75.7675 220.079 75.6065 220.772 75.6065C221.424 75.6065 221.991 75.7514 222.474 76.0412C222.957 76.3269 223.331 76.7314 223.597 77.2546C223.867 77.7778 223.999 78.3896 223.995 79.0898V85H221.043V79.6694C221.047 79.1542 220.918 78.7518 220.657 78.462C220.395 78.1722 220.027 78.0273 219.552 78.0273C219.242 78.0273 218.969 78.0958 218.731 78.2326C218.498 78.3654 218.315 78.5566 218.182 78.8061C218.053 79.0556 217.987 79.3575 217.983 79.7116ZM228.452 85.157C227.86 85.157 227.335 85.0584 226.876 84.8612C226.422 84.6599 226.061 84.3581 225.796 83.9556C225.534 83.5491 225.403 83.04 225.403 82.4283C225.403 81.9131 225.494 81.4785 225.675 81.1243C225.856 80.7701 226.106 80.4824 226.424 80.261C226.742 80.0397 227.108 79.8726 227.522 79.7599C227.937 79.6432 228.38 79.5647 228.85 79.5245C229.378 79.4762 229.802 79.4259 230.124 79.3736C230.446 79.3172 230.68 79.2388 230.825 79.1381C230.973 79.0335 231.048 78.8866 231.048 78.6974V78.6673C231.048 78.3574 230.941 78.1179 230.728 77.9489C230.515 77.7798 230.227 77.6953 229.865 77.6953C229.474 77.6953 229.16 77.7798 228.923 77.9489C228.685 78.1179 228.535 78.3513 228.47 78.6491L225.748 78.5526C225.828 77.9891 226.035 77.486 226.369 77.0433C226.707 76.5966 227.17 76.2464 227.758 75.9929C228.349 75.7353 229.06 75.6065 229.889 75.6065C230.48 75.6065 231.026 75.677 231.525 75.8178C232.024 75.9547 232.459 76.1559 232.829 76.4215C233.199 76.6831 233.485 77.0051 233.686 77.3874C233.891 77.7698 233.994 78.2064 233.994 78.6974V85H231.217V83.7081H231.145C230.98 84.022 230.768 84.2876 230.511 84.505C230.257 84.7223 229.957 84.8853 229.611 84.994C229.269 85.1026 228.883 85.157 228.452 85.157ZM229.364 83.2251C229.682 83.2251 229.967 83.1607 230.221 83.032C230.478 82.9032 230.684 82.7261 230.837 82.5007C230.99 82.2713 231.066 82.0057 231.066 81.7038V80.8224C230.982 80.8667 230.879 80.907 230.758 80.9432C230.641 80.9794 230.513 81.0136 230.372 81.0458C230.231 81.078 230.086 81.1062 229.937 81.1303C229.788 81.1545 229.645 81.1766 229.509 81.1967C229.231 81.241 228.993 81.3094 228.796 81.402C228.603 81.4946 228.454 81.6153 228.349 81.7642C228.249 81.9091 228.199 82.0821 228.199 82.2834C228.199 82.5893 228.307 82.8227 228.525 82.9837C228.746 83.1446 229.026 83.2251 229.364 83.2251ZM248.446 75.7273L245.265 85H241.884L238.709 75.7273H241.818L243.526 82.1143H243.623L245.337 75.7273H248.446ZM249.578 85V75.7273H252.53V85H249.578ZM251.057 74.6467C250.643 74.6467 250.287 74.5098 249.989 74.2362C249.691 73.9585 249.542 73.6244 249.542 73.234C249.542 72.8477 249.691 72.5176 249.989 72.244C250.287 71.9663 250.643 71.8274 251.057 71.8274C251.476 71.8274 251.832 71.9663 252.126 72.244C252.424 72.5176 252.573 72.8477 252.573 73.234C252.573 73.6244 252.424 73.9585 252.126 74.2362C251.832 74.5098 251.476 74.6467 251.057 74.6467ZM257.796 85.1328C257.112 85.1328 256.49 84.9557 255.931 84.6016C255.371 84.2474 254.925 83.7161 254.59 83.0078C254.256 82.2995 254.089 81.4201 254.089 80.3697C254.089 79.279 254.262 78.3815 254.609 77.6772C254.955 76.9729 255.407 76.4517 255.967 76.1136C256.53 75.7756 257.136 75.6065 257.784 75.6065C258.271 75.6065 258.688 75.6911 259.034 75.8601C259.38 76.0251 259.666 76.2384 259.891 76.5C260.116 76.7616 260.287 77.0333 260.404 77.315H260.464V72.6364H263.416V85H260.495V83.4968H260.404C260.279 83.7826 260.102 84.0502 259.873 84.2997C259.643 84.5492 259.356 84.7505 259.009 84.9034C258.667 85.0563 258.263 85.1328 257.796 85.1328ZM258.822 82.8327C259.181 82.8327 259.486 82.7321 259.74 82.5309C259.994 82.3256 260.189 82.0379 260.326 81.6676C260.462 81.2973 260.531 80.8627 260.531 80.3636C260.531 79.8565 260.462 79.4199 260.326 79.0536C260.193 78.6874 259.998 78.4057 259.74 78.2085C259.486 78.0112 259.181 77.9126 258.822 77.9126C258.456 77.9126 258.146 78.0133 257.893 78.2145C257.639 78.4157 257.446 78.6995 257.313 79.0657C257.184 79.4319 257.12 79.8646 257.12 80.3636C257.12 80.8627 257.186 81.2973 257.319 81.6676C257.452 82.0379 257.643 82.3256 257.893 82.5309C258.146 82.7321 258.456 82.8327 258.822 82.8327ZM267.897 85.157C267.306 85.157 266.781 85.0584 266.322 84.8612C265.867 84.6599 265.507 84.3581 265.241 83.9556C264.98 83.5491 264.849 83.04 264.849 82.4283C264.849 81.9131 264.939 81.4785 265.12 81.1243C265.301 80.7701 265.551 80.4824 265.869 80.261C266.187 80.0397 266.553 79.8726 266.968 79.7599C267.382 79.6432 267.825 79.5647 268.296 79.5245C268.823 79.4762 269.248 79.4259 269.57 79.3736C269.892 79.3172 270.125 79.2388 270.27 79.1381C270.419 79.0335 270.493 78.8866 270.493 78.6974V78.6673C270.493 78.3574 270.387 78.1179 270.173 77.9489C269.96 77.7798 269.672 77.6953 269.31 77.6953C268.92 77.6953 268.606 77.7798 268.368 77.9489C268.131 78.1179 267.98 78.3513 267.915 78.6491L265.193 78.5526C265.273 77.9891 265.481 77.486 265.815 77.0433C266.153 76.5966 266.616 76.2464 267.203 75.9929C267.795 75.7353 268.505 75.6065 269.334 75.6065C269.926 75.6065 270.471 75.677 270.97 75.8178C271.469 75.9547 271.904 76.1559 272.274 76.4215C272.644 76.6831 272.93 77.0051 273.131 77.3874C273.337 77.7698 273.439 78.2064 273.439 78.6974V85H270.662V83.7081H270.59C270.425 84.022 270.214 84.2876 269.956 84.505C269.702 84.7223 269.403 84.8853 269.056 84.994C268.714 85.1026 268.328 85.157 267.897 85.157ZM268.809 83.2251C269.127 83.2251 269.413 83.1607 269.666 83.032C269.924 82.9032 270.129 82.7261 270.282 82.5007C270.435 82.2713 270.511 82.0057 270.511 81.7038V80.8224C270.427 80.8667 270.324 80.907 270.203 80.9432C270.087 80.9794 269.958 81.0136 269.817 81.0458C269.676 81.078 269.531 81.1062 269.382 81.1303C269.234 81.1545 269.091 81.1766 268.954 81.1967C268.676 81.241 268.439 81.3094 268.241 81.402C268.048 81.4946 267.899 81.6153 267.795 81.7642C267.694 81.9091 267.644 82.0821 267.644 82.2834C267.644 82.5893 267.752 82.8227 267.97 82.9837C268.191 83.1446 268.471 83.2251 268.809 83.2251ZM278.716 72.6364L278.438 81.2148H275.957L275.679 72.6364H278.716ZM277.194 85.1751C276.764 85.1751 276.393 85.0221 276.083 84.7163C275.778 84.4104 275.625 84.0401 275.625 83.6055C275.625 83.1789 275.778 82.8146 276.083 82.5128C276.393 82.2069 276.764 82.054 277.194 82.054C277.609 82.054 277.973 82.2069 278.287 82.5128C278.605 82.8146 278.764 83.1789 278.764 83.6055C278.764 83.8952 278.689 84.1589 278.54 84.3963C278.396 84.6338 278.204 84.8229 277.967 84.9638C277.734 85.1046 277.476 85.1751 277.194 85.1751ZM47.8693 106L49.9219 93.6364H57.0756L56.9066 94.6506H50.8817L50.109 99.305H55.5724L55.4034 100.319H49.94L48.9982 106H47.8693ZM60.651 106.193C59.7857 106.193 59.0713 105.992 58.5079 105.589C57.9445 105.183 57.55 104.622 57.3247 103.905C57.0993 103.185 57.0651 102.356 57.222 101.418C57.379 100.484 57.6889 99.6552 58.1517 98.9308C58.6146 98.2023 59.186 97.6328 59.8662 97.2223C60.5464 96.8078 61.2849 96.6005 62.0818 96.6005C62.5848 96.6005 63.0557 96.6931 63.4944 96.8782C63.9331 97.0593 64.3054 97.339 64.6112 97.7173C64.9211 98.0916 65.1365 98.5645 65.2572 99.136C65.3779 99.7035 65.3739 100.376 65.2451 101.152L65.1606 101.684H57.9163L58.0672 100.736H64.2188C64.3195 100.14 64.2913 99.6049 64.1343 99.13C63.9774 98.6551 63.7097 98.2788 63.3314 98.0011C62.9571 97.7193 62.4923 97.5785 61.9369 97.5785C61.3694 97.5785 60.8321 97.7375 60.325 98.0554C59.8219 98.3733 59.3953 98.7879 59.0452 99.299C58.6991 99.8061 58.4757 100.347 58.3751 100.923L58.2544 101.635C58.1256 102.42 58.1417 103.078 58.3026 103.609C58.4636 104.137 58.7554 104.535 59.178 104.805C59.6006 105.074 60.1419 105.209 60.8019 105.209C61.2446 105.209 61.6451 105.141 62.0033 105.004C62.3615 104.867 62.6734 104.684 62.939 104.455C63.2046 104.221 63.4179 103.966 63.5789 103.688L64.5388 104.02C64.3335 104.41 64.0438 104.77 63.6695 105.1C63.2992 105.431 62.8585 105.696 62.3474 105.897C61.8403 106.095 61.2748 106.193 60.651 106.193ZM69.9313 93.6364L67.8787 106H66.8042L68.8567 93.6364H69.9313ZM70.7342 106L72.2797 96.7273H73.3603L71.8148 106H70.7342ZM73.2093 95.1154C72.984 95.1154 72.7928 95.0389 72.6358 94.886C72.4829 94.7331 72.4084 94.5479 72.4125 94.3306C72.4205 94.1254 72.503 93.9483 72.66 93.7994C72.821 93.6464 73.0101 93.57 73.2275 93.57C73.4528 93.57 73.644 93.6484 73.801 93.8054C73.9579 93.9583 74.0324 94.1435 74.0243 94.3608C74.0203 94.5661 73.9378 94.7431 73.7768 94.892C73.6158 95.041 73.4267 95.1154 73.2093 95.1154ZM74.3669 106L74.5178 105.149L81.08 97.82L81.0921 97.7415H75.9727L76.1418 96.7273H82.6556L82.5047 97.6147L76.0452 104.907L76.0331 104.986H81.4724L81.3034 106H74.3669ZM94.2782 93.6364L92.2257 106H91.0968L92.9501 94.8196H92.8777L89.66 96.7454L89.8592 95.5742L93.101 93.6364H94.2782ZM96.2704 106.091C96.0289 106.091 95.8257 106.006 95.6607 105.837C95.4997 105.668 95.4192 105.463 95.4192 105.221C95.4192 104.98 95.5078 104.777 95.6848 104.612C95.8619 104.446 96.0692 104.364 96.3066 104.364C96.5441 104.364 96.7473 104.449 96.9164 104.618C97.0854 104.787 97.1659 104.988 97.1578 105.221C97.1538 105.382 97.1096 105.529 97.025 105.662C96.9445 105.791 96.8379 105.895 96.7051 105.976C96.5763 106.052 96.4314 106.091 96.2704 106.091ZM103.231 106.169C102.43 106.169 101.742 106.016 101.166 105.71C100.591 105.4 100.168 104.982 99.8986 104.455C99.629 103.927 99.5485 103.338 99.6571 102.686C99.7417 102.183 99.9248 101.714 100.206 101.279C100.492 100.844 100.842 100.478 101.257 100.18C101.675 99.8786 102.124 99.6834 102.603 99.5948V99.5465C102.024 99.3694 101.597 99.0092 101.323 98.4659C101.054 97.9226 100.981 97.3129 101.106 96.6367C101.219 96.025 101.468 95.4817 101.855 95.0067C102.245 94.5278 102.73 94.1515 103.309 93.8778C103.889 93.6042 104.521 93.4673 105.205 93.4673C105.901 93.4673 106.505 93.6122 107.016 93.902C107.531 94.1918 107.912 94.5862 108.157 95.0852C108.403 95.5803 108.473 96.1417 108.368 96.7695C108.248 97.4537 107.952 98.0453 107.481 98.5444C107.01 99.0434 106.463 99.3775 105.839 99.5465V99.5948C106.294 99.6914 106.684 99.8967 107.01 100.211C107.336 100.52 107.572 100.903 107.716 101.358C107.861 101.808 107.89 102.293 107.801 102.812C107.696 103.456 107.427 104.032 106.992 104.539C106.561 105.042 106.02 105.441 105.368 105.734C104.716 106.024 104.004 106.169 103.231 106.169ZM103.255 105.155C103.859 105.155 104.408 105.046 104.903 104.829C105.398 104.612 105.805 104.314 106.123 103.935C106.445 103.553 106.646 103.116 106.726 102.625C106.803 102.138 106.749 101.706 106.563 101.327C106.378 100.945 106.086 100.645 105.688 100.428C105.294 100.211 104.821 100.102 104.269 100.102C103.694 100.102 103.155 100.219 102.651 100.452C102.152 100.681 101.734 100.997 101.396 101.4C101.058 101.798 100.848 102.251 100.768 102.758C100.691 103.225 100.744 103.64 100.925 104.002C101.106 104.364 101.396 104.648 101.794 104.853C102.193 105.054 102.68 105.155 103.255 105.155ZM104.245 99.136C104.744 99.136 105.209 99.0294 105.64 98.8161C106.074 98.6027 106.437 98.313 106.726 97.9467C107.02 97.5805 107.207 97.166 107.288 96.7031C107.364 96.2524 107.326 95.86 107.173 95.5259C107.02 95.1879 106.775 94.9263 106.437 94.7411C106.099 94.556 105.684 94.4634 105.193 94.4634C104.686 94.4634 104.217 94.5661 103.786 94.7713C103.356 94.9725 102.998 95.2522 102.712 95.6104C102.426 95.9646 102.245 96.3711 102.169 96.8299C102.092 97.2847 102.132 97.6851 102.289 98.0312C102.446 98.3774 102.694 98.649 103.032 98.8462C103.37 99.0394 103.774 99.136 104.245 99.136ZM113.761 106V96.7273H116.568V98.4297H116.671C116.864 97.8662 117.19 97.4215 117.649 97.0955C118.108 96.7695 118.655 96.6065 119.291 96.6065C119.935 96.6065 120.486 96.7715 120.945 97.1016C121.404 97.4316 121.695 97.8743 121.82 98.4297H121.917C122.09 97.8783 122.428 97.4376 122.931 97.1076C123.434 96.7736 124.028 96.6065 124.712 96.6065C125.589 96.6065 126.302 96.8883 126.849 97.4517C127.396 98.0111 127.67 98.7798 127.67 99.7578V106H124.718V100.434C124.718 99.9711 124.599 99.619 124.362 99.3775C124.124 99.132 123.816 99.0092 123.438 99.0092C123.032 99.0092 122.712 99.142 122.478 99.4077C122.249 99.6693 122.134 100.021 122.134 100.464V106H119.297V100.404C119.297 99.9731 119.18 99.633 118.947 99.3835C118.713 99.134 118.405 99.0092 118.023 99.0092C117.765 99.0092 117.538 99.0716 117.341 99.1964C117.144 99.3171 116.989 99.4902 116.876 99.7156C116.767 99.9409 116.713 100.207 116.713 100.512V106H113.761ZM129.499 106V96.7273H132.451V106H129.499ZM130.978 95.6467C130.564 95.6467 130.208 95.5098 129.91 95.2362C129.612 94.9585 129.463 94.6244 129.463 94.234C129.463 93.8477 129.612 93.5176 129.91 93.244C130.208 92.9663 130.564 92.8274 130.978 92.8274C131.397 92.8274 131.753 92.9663 132.047 93.244C132.345 93.5176 132.494 93.8477 132.494 94.234C132.494 94.6244 132.345 94.9585 132.047 95.2362C131.753 95.5098 131.397 95.6467 130.978 95.6467ZM137.282 100.712V106H134.33V96.7273H137.137V98.4297H137.24C137.445 97.8622 137.795 97.4175 138.29 97.0955C138.786 96.7695 139.375 96.6065 140.059 96.6065C140.711 96.6065 141.277 96.7534 141.756 97.0472C142.239 97.337 142.613 97.7435 142.879 98.2667C143.148 98.7859 143.281 99.3936 143.277 100.09V106H140.325V100.669C140.329 100.154 140.198 99.7518 139.933 99.462C139.671 99.1722 139.307 99.0273 138.84 99.0273C138.53 99.0273 138.256 99.0958 138.019 99.2326C137.785 99.3654 137.604 99.5566 137.475 99.8061C137.351 100.056 137.286 100.357 137.282 100.712ZM148.057 100.712V106H145.105V93.6364H147.96V98.4297H148.063C148.272 97.8582 148.614 97.4115 149.089 97.0895C149.568 96.7675 150.154 96.6065 150.846 96.6065C151.498 96.6065 152.065 96.7514 152.548 97.0412C153.031 97.3269 153.405 97.7314 153.671 98.2546C153.941 98.7778 154.074 99.3896 154.07 100.09V106H151.117V100.669C151.121 100.154 150.993 99.7518 150.731 99.462C150.469 99.1722 150.101 99.0273 149.626 99.0273C149.316 99.0273 149.043 99.0958 148.805 99.2326C148.572 99.3654 148.389 99.5566 148.256 99.8061C148.127 100.056 148.061 100.357 148.057 100.712ZM158.526 106.157C157.935 106.157 157.409 106.058 156.951 105.861C156.496 105.66 156.136 105.358 155.87 104.956C155.608 104.549 155.478 104.04 155.478 103.428C155.478 102.913 155.568 102.478 155.749 102.124C155.93 101.77 156.18 101.482 156.498 101.261C156.816 101.04 157.182 100.873 157.597 100.76C158.011 100.643 158.454 100.565 158.925 100.525C159.452 100.476 159.877 100.426 160.199 100.374C160.52 100.317 160.754 100.239 160.899 100.138C161.048 100.033 161.122 99.8866 161.122 99.6974V99.6673C161.122 99.3574 161.016 99.1179 160.802 98.9489C160.589 98.7798 160.301 98.6953 159.939 98.6953C159.549 98.6953 159.235 98.7798 158.997 98.9489C158.76 99.1179 158.609 99.3513 158.544 99.6491L155.822 99.5526C155.902 98.9891 156.109 98.486 156.444 98.0433C156.782 97.5966 157.244 97.2464 157.832 96.9929C158.424 96.7353 159.134 96.6065 159.963 96.6065C160.555 96.6065 161.1 96.677 161.599 96.8178C162.098 96.9547 162.533 97.1559 162.903 97.4215C163.273 97.6831 163.559 98.0051 163.76 98.3874C163.966 98.7698 164.068 99.2064 164.068 99.6974V106H161.291V104.708H161.219C161.054 105.022 160.842 105.288 160.585 105.505C160.331 105.722 160.031 105.885 159.685 105.994C159.343 106.103 158.957 106.157 158.526 106.157ZM159.438 104.225C159.756 104.225 160.042 104.161 160.295 104.032C160.553 103.903 160.758 103.726 160.911 103.501C161.064 103.271 161.14 103.006 161.14 102.704V101.822C161.056 101.867 160.953 101.907 160.832 101.943C160.716 101.979 160.587 102.014 160.446 102.046C160.305 102.078 160.16 102.106 160.011 102.13C159.862 102.154 159.72 102.177 159.583 102.197C159.305 102.241 159.068 102.309 158.87 102.402C158.677 102.495 158.528 102.615 158.424 102.764C158.323 102.909 158.273 103.082 158.273 103.283C158.273 103.589 158.381 103.823 158.599 103.984C158.82 104.145 159.1 104.225 159.438 104.225ZM173.848 109.67C172.967 109.67 172.212 109.548 171.584 109.302C170.956 109.057 170.463 108.721 170.105 108.294C169.747 107.867 169.532 107.384 169.459 106.845L172.254 106.688C172.307 106.877 172.403 107.042 172.544 107.183C172.689 107.324 172.876 107.433 173.105 107.509C173.339 107.586 173.613 107.624 173.926 107.624C174.422 107.624 174.83 107.503 175.152 107.262C175.478 107.024 175.641 106.608 175.641 106.012V104.382H175.538C175.422 104.668 175.245 104.923 175.007 105.149C174.77 105.374 174.474 105.551 174.12 105.68C173.77 105.809 173.367 105.873 172.912 105.873C172.236 105.873 171.616 105.716 171.053 105.402C170.493 105.084 170.045 104.593 169.707 103.929C169.373 103.261 169.206 102.402 169.206 101.352C169.206 100.269 169.379 99.3775 169.725 98.6772C170.071 97.9729 170.524 97.4517 171.083 97.1136C171.647 96.7756 172.252 96.6065 172.9 96.6065C173.387 96.6065 173.804 96.6911 174.15 96.8601C174.5 97.0251 174.788 97.2384 175.013 97.5C175.239 97.7616 175.41 98.0333 175.526 98.315H175.611V96.7273H178.551V106.036C178.551 106.821 178.354 107.483 177.959 108.022C177.565 108.562 177.013 108.97 176.305 109.248C175.597 109.53 174.778 109.67 173.848 109.67ZM173.939 103.724C174.297 103.724 174.603 103.629 174.856 103.44C175.11 103.251 175.305 102.98 175.442 102.625C175.579 102.271 175.647 101.847 175.647 101.352C175.647 100.848 175.579 100.416 175.442 100.054C175.309 99.6874 175.114 99.4057 174.856 99.2085C174.603 99.0112 174.297 98.9126 173.939 98.9126C173.572 98.9126 173.262 99.0133 173.009 99.2145C172.755 99.4157 172.562 99.6995 172.429 100.066C172.301 100.428 172.236 100.857 172.236 101.352C172.236 101.847 172.303 102.271 172.435 102.625C172.568 102.98 172.759 103.251 173.009 103.44C173.262 103.629 173.572 103.724 173.939 103.724ZM183.047 106.157C182.455 106.157 181.93 106.058 181.471 105.861C181.016 105.66 180.656 105.358 180.391 104.956C180.129 104.549 179.998 104.04 179.998 103.428C179.998 102.913 180.089 102.478 180.27 102.124C180.451 101.77 180.7 101.482 181.018 101.261C181.336 101.04 181.703 100.873 182.117 100.76C182.532 100.643 182.974 100.565 183.445 100.525C183.972 100.476 184.397 100.426 184.719 100.374C185.041 100.317 185.274 100.239 185.419 100.138C185.568 100.033 185.643 99.8866 185.643 99.6974V99.6673C185.643 99.3574 185.536 99.1179 185.323 98.9489C185.109 98.7798 184.822 98.6953 184.459 98.6953C184.069 98.6953 183.755 98.7798 183.518 98.9489C183.28 99.1179 183.129 99.3513 183.065 99.6491L180.342 99.5526C180.423 98.9891 180.63 98.486 180.964 98.0433C181.302 97.5966 181.765 97.2464 182.353 96.9929C182.944 96.7353 183.655 96.6065 184.484 96.6065C185.075 96.6065 185.621 96.677 186.12 96.8178C186.619 96.9547 187.053 97.1559 187.424 97.4215C187.794 97.6831 188.08 98.0051 188.281 98.3874C188.486 98.7698 188.589 99.2064 188.589 99.6974V106H185.812V104.708H185.739C185.574 105.022 185.363 105.288 185.105 105.505C184.852 105.722 184.552 105.885 184.206 105.994C183.864 106.103 183.477 106.157 183.047 106.157ZM183.958 104.225C184.276 104.225 184.562 104.161 184.816 104.032C185.073 103.903 185.278 103.726 185.431 103.501C185.584 103.271 185.661 103.006 185.661 102.704V101.822C185.576 101.867 185.474 101.907 185.353 101.943C185.236 101.979 185.107 102.014 184.967 102.046C184.826 102.078 184.681 102.106 184.532 102.13C184.383 102.154 184.24 102.177 184.103 102.197C183.826 102.241 183.588 102.309 183.391 102.402C183.198 102.495 183.049 102.615 182.944 102.764C182.844 102.909 182.793 103.082 182.793 103.283C182.793 103.589 182.902 103.823 183.119 103.984C183.341 104.145 183.62 104.225 183.958 104.225ZM195.628 96.7273V98.9006H189.778V96.7273H195.628ZM191.003 94.5057H193.956V103.084C193.956 103.265 193.984 103.412 194.04 103.525C194.1 103.634 194.187 103.712 194.3 103.76C194.412 103.805 194.547 103.827 194.704 103.827C194.817 103.827 194.936 103.817 195.06 103.797C195.189 103.772 195.286 103.752 195.35 103.736L195.797 105.867C195.656 105.907 195.457 105.958 195.199 106.018C194.946 106.078 194.642 106.117 194.288 106.133C193.595 106.165 193.002 106.085 192.507 105.891C192.016 105.694 191.639 105.388 191.378 104.974C191.12 104.559 190.995 104.038 191.003 103.41V94.5057ZM199.748 106.157C199.156 106.157 198.631 106.058 198.172 105.861C197.718 105.66 197.357 105.358 197.092 104.956C196.83 104.549 196.699 104.04 196.699 103.428C196.699 102.913 196.79 102.478 196.971 102.124C197.152 101.77 197.402 101.482 197.72 101.261C198.037 101.04 198.404 100.873 198.818 100.76C199.233 100.643 199.676 100.565 200.146 100.525C200.674 100.476 201.098 100.426 201.42 100.374C201.742 100.317 201.976 100.239 202.12 100.138C202.269 100.033 202.344 99.8866 202.344 99.6974V99.6673C202.344 99.3574 202.237 99.1179 202.024 98.9489C201.811 98.7798 201.523 98.6953 201.161 98.6953C200.77 98.6953 200.456 98.7798 200.219 98.9489C199.981 99.1179 199.83 99.3513 199.766 99.6491L197.043 99.5526C197.124 98.9891 197.331 98.486 197.665 98.0433C198.003 97.5966 198.466 97.2464 199.054 96.9929C199.645 96.7353 200.356 96.6065 201.185 96.6065C201.776 96.6065 202.322 96.677 202.821 96.8178C203.32 96.9547 203.754 97.1559 204.125 97.4215C204.495 97.6831 204.781 98.0051 204.982 98.3874C205.187 98.7698 205.29 99.2064 205.29 99.6974V106H202.513V104.708H202.44C202.275 105.022 202.064 105.288 201.807 105.505C201.553 105.722 201.253 105.885 200.907 105.994C200.565 106.103 200.179 106.157 199.748 106.157ZM200.66 104.225C200.977 104.225 201.263 104.161 201.517 104.032C201.774 103.903 201.98 103.726 202.133 103.501C202.285 103.271 202.362 103.006 202.362 102.704V101.822C202.277 101.867 202.175 101.907 202.054 101.943C201.937 101.979 201.809 102.014 201.668 102.046C201.527 102.078 201.382 102.106 201.233 102.13C201.084 102.154 200.941 102.177 200.804 102.197C200.527 102.241 200.289 102.309 200.092 102.402C199.899 102.495 199.75 102.615 199.645 102.764C199.545 102.909 199.494 103.082 199.494 103.283C199.494 103.589 199.603 103.823 199.82 103.984C200.042 104.145 200.321 104.225 200.66 104.225ZM208.755 106.175C208.32 106.175 207.948 106.022 207.638 105.716C207.332 105.41 207.181 105.04 207.185 104.605C207.181 104.179 207.332 103.815 207.638 103.513C207.948 103.207 208.32 103.054 208.755 103.054C209.166 103.054 209.528 103.207 209.842 103.513C210.16 103.815 210.321 104.179 210.325 104.605C210.321 104.895 210.244 105.159 210.095 105.396C209.95 105.634 209.759 105.823 209.522 105.964C209.288 106.105 209.033 106.175 208.755 106.175ZM49.4744 134.166C49.0251 134.166 48.6312 134.082 48.2926 133.912C47.9541 133.74 47.7032 133.492 47.5401 133.169C47.377 132.843 47.3324 132.449 47.4062 131.987C47.477 131.581 47.614 131.252 47.8171 130.999C48.0202 130.744 48.2665 130.544 48.5558 130.399C48.8481 130.251 49.1621 130.142 49.4975 130.071C49.8361 129.998 50.1731 129.941 50.5085 129.901C50.9455 129.845 51.301 129.802 51.5749 129.771C51.8488 129.741 52.055 129.69 52.1935 129.619C52.332 129.548 52.4167 129.427 52.4474 129.254V129.217C52.5213 128.765 52.4613 128.413 52.2674 128.16C52.0735 127.905 51.7273 127.777 51.2287 127.777C50.7116 127.777 50.2792 127.891 49.9315 128.119C49.5837 128.346 49.3267 128.589 49.1605 128.848L48.2003 128.479C48.4527 128.048 48.7543 127.712 49.1051 127.472C49.456 127.229 49.8237 127.06 50.2085 126.964C50.5932 126.866 50.964 126.817 51.321 126.817C51.5488 126.817 51.8058 126.844 52.092 126.9C52.3782 126.952 52.646 127.061 52.8952 127.228C53.1476 127.394 53.3369 127.645 53.4631 127.98C53.5923 128.316 53.6108 128.765 53.5185 129.328L52.7429 134H51.6534L51.8196 133.04H51.7642C51.6657 133.194 51.5149 133.358 51.3118 133.534C51.1117 133.709 50.8578 133.858 50.5501 133.982C50.2454 134.105 49.8868 134.166 49.4744 134.166ZM49.7884 133.188C50.2192 133.188 50.5962 133.103 50.9194 132.934C51.2456 132.764 51.5072 132.546 51.7042 132.278C51.9042 132.01 52.0289 131.729 52.0781 131.433L52.2443 130.436C52.1889 130.491 52.0797 130.542 51.9165 130.588C51.7534 130.632 51.5688 130.67 51.3626 130.704C51.1594 130.735 50.9609 130.762 50.767 130.787C50.5762 130.808 50.4223 130.827 50.3054 130.842C50.0161 130.879 49.7406 130.939 49.479 131.022C49.2205 131.102 49.002 131.224 48.8235 131.387C48.6481 131.547 48.5388 131.766 48.4957 132.043C48.4311 132.421 48.5219 132.707 48.7681 132.901C49.0143 133.092 49.3544 133.188 49.7884 133.188ZM60.6775 128.497L59.6434 128.774C59.6064 128.608 59.5418 128.448 59.4495 128.294C59.3602 128.137 59.2217 128.009 59.034 127.911C58.8493 127.809 58.597 127.759 58.2769 127.759C57.843 127.759 57.4659 127.859 57.1459 128.059C56.8258 128.256 56.6427 128.506 56.5965 128.811C56.5503 129.079 56.6119 129.293 56.7812 129.453C56.9504 129.613 57.2336 129.744 57.6306 129.845L58.6462 130.104C59.2556 130.261 59.6895 130.496 59.9481 130.81C60.2097 131.121 60.2989 131.526 60.2158 132.024C60.1481 132.43 59.9711 132.794 59.6849 133.114C59.3987 133.434 59.0325 133.686 58.5862 133.871C58.1399 134.055 57.6429 134.148 57.0951 134.148C56.3657 134.148 55.7902 133.991 55.3685 133.677C54.9469 133.36 54.7222 132.901 54.6945 132.301L55.784 132.043C55.8117 132.421 55.9471 132.707 56.1903 132.901C56.4365 133.092 56.7812 133.188 57.2243 133.188C57.7322 133.188 58.1553 133.08 58.4939 132.864C58.8324 132.646 59.0248 132.384 59.0709 132.08C59.1171 131.83 59.0679 131.623 58.9232 131.456C58.7816 131.29 58.5354 131.165 58.1846 131.082L57.0581 130.805C56.4303 130.648 55.9902 130.408 55.7378 130.085C55.4885 129.762 55.4055 129.356 55.4885 128.866C55.5563 128.466 55.7286 128.112 56.0056 127.805C56.2857 127.497 56.6365 127.255 57.0581 127.08C57.4829 126.904 57.9445 126.817 58.4431 126.817C59.1448 126.817 59.6695 126.971 60.0173 127.278C60.3651 127.583 60.5851 127.989 60.6775 128.497ZM67.4695 128.497L66.4354 128.774C66.3984 128.608 66.3338 128.448 66.2415 128.294C66.1522 128.137 66.0137 128.009 65.826 127.911C65.6413 127.809 65.389 127.759 65.0689 127.759C64.6349 127.759 64.2579 127.859 63.9379 128.059C63.6178 128.256 63.4347 128.506 63.3885 128.811C63.3423 129.079 63.4039 129.293 63.5732 129.453C63.7424 129.613 64.0256 129.744 64.4226 129.845L65.4382 130.104C66.0476 130.261 66.4815 130.496 66.7401 130.81C67.0017 131.121 67.0909 131.526 67.0078 132.024C66.9401 132.43 66.7631 132.794 66.4769 133.114C66.1907 133.434 65.8245 133.686 65.3782 133.871C64.9319 134.055 64.4349 134.148 63.8871 134.148C63.1577 134.148 62.5821 133.991 62.1605 133.677C61.7389 133.36 61.5142 132.901 61.4865 132.301L62.576 132.043C62.6037 132.421 62.7391 132.707 62.9822 132.901C63.2285 133.092 63.5732 133.188 64.0163 133.188C64.5241 133.188 64.9473 133.08 65.2859 132.864C65.6244 132.646 65.8168 132.384 65.8629 132.08C65.9091 131.83 65.8598 131.623 65.7152 131.456C65.5736 131.29 65.3274 131.165 64.9766 131.082L63.8501 130.805C63.2223 130.648 62.7822 130.408 62.5298 130.085C62.2805 129.762 62.1974 129.356 62.2805 128.866C62.3482 128.466 62.5206 128.112 62.7976 127.805C63.0777 127.497 63.4285 127.255 63.8501 127.08C64.2749 126.904 64.7365 126.817 65.2351 126.817C65.9368 126.817 66.4615 126.971 66.8093 127.278C67.1571 127.583 67.3771 127.989 67.4695 128.497ZM69.2387 134.074C69.0048 134.074 68.8094 133.994 68.6524 133.834C68.4955 133.671 68.4139 133.474 68.4078 133.243C68.4047 133.012 68.4862 132.82 68.6524 132.666C68.8186 132.509 69.0141 132.43 69.2387 132.43C69.4665 132.43 69.6634 132.51 69.8296 132.67C69.9958 132.83 70.0758 133.021 70.0697 133.243C70.0666 133.397 70.0266 133.537 69.9497 133.663C69.8758 133.789 69.7758 133.889 69.6496 133.963C69.5265 134.037 69.3895 134.074 69.2387 134.074ZM70.1066 128.811C69.8727 128.811 69.6773 128.731 69.5203 128.571C69.3634 128.408 69.2818 128.211 69.2757 127.98C69.2726 127.749 69.3541 127.557 69.5203 127.403C69.6865 127.246 69.882 127.168 70.1066 127.168C70.3344 127.168 70.5313 127.248 70.6975 127.408C70.8637 127.568 70.9437 127.759 70.9376 127.98C70.9345 128.134 70.8945 128.274 70.8176 128.4C70.7437 128.526 70.6437 128.626 70.5175 128.7C70.3944 128.774 70.2574 128.811 70.1066 128.811ZM80.6616 134.216C80.5176 134.216 80.3496 134.152 80.1576 134.024C79.9816 133.896 79.8296 133.752 79.7016 133.592C79.5736 133.416 79.5096 133.256 79.5096 133.112C79.5096 132.872 79.5976 132.552 79.7736 132.152C79.9496 131.736 80.1496 131.328 80.3736 130.928C80.6136 130.528 80.7976 130.232 80.9256 130.04C80.7016 130.232 80.4136 130.544 80.0616 130.976C79.7256 131.392 79.3576 131.84 78.9576 132.32C78.5736 132.784 78.1976 133.184 77.8296 133.52C77.4776 133.856 77.1736 134.024 76.9176 134.024C76.5656 134.024 76.2776 133.904 76.0536 133.664C75.8456 133.408 75.7416 133.104 75.7416 132.752C75.7416 132.272 75.8776 131.76 76.1496 131.216C76.4216 130.656 76.7736 130.12 77.2056 129.608C77.6536 129.08 78.1336 128.6 78.6456 128.168C79.1736 127.736 79.6856 127.392 80.1816 127.136C80.6936 126.88 81.1496 126.752 81.5496 126.752C81.9816 126.752 82.3336 126.856 82.6056 127.064C82.8776 127.256 83.0136 127.552 83.0136 127.952C83.0136 128.016 82.9976 128.136 82.9656 128.312C82.9496 128.488 82.8936 128.576 82.7976 128.576C82.7496 128.576 82.6696 128.504 82.5576 128.36C82.4616 128.216 82.3256 128.072 82.1496 127.928C81.9736 127.784 81.7496 127.712 81.4776 127.712C81.0296 127.712 80.5576 127.88 80.0616 128.216C79.5816 128.536 79.1176 128.952 78.6696 129.464C78.2216 129.96 77.8296 130.472 77.4936 131C77.1576 131.528 76.9016 131.984 76.7256 132.368C76.6776 132.48 76.6296 132.6 76.5816 132.728C76.5496 132.856 76.5336 132.984 76.5336 133.112C76.5336 133.256 76.5736 133.328 76.6536 133.328C76.7336 133.328 76.9016 133.24 77.1576 133.064C77.4296 132.888 77.6216 132.76 77.7336 132.68C78.2936 132.28 78.8216 131.824 79.3176 131.312C79.8296 130.8 80.2856 130.272 80.6856 129.728C80.8136 129.552 80.9336 129.376 81.0456 129.2C81.1576 129.024 81.2696 128.856 81.3816 128.696C81.4616 128.584 81.5416 128.528 81.6216 128.528C81.7976 128.528 81.9656 128.648 82.1256 128.888C82.3016 129.128 82.3896 129.336 82.3896 129.512C82.3896 129.592 82.3736 129.64 82.3416 129.656C82.3256 129.672 82.2776 129.72 82.1976 129.8C81.9576 130.04 81.7176 130.376 81.4776 130.808C81.2536 131.24 81.0536 131.68 80.8776 132.128C80.7176 132.56 80.5976 132.928 80.5176 133.232C80.5016 133.28 80.4856 133.344 80.4696 133.424C80.4696 133.488 80.5096 133.512 80.5896 133.496C80.7496 133.448 81.0056 133.272 81.3576 132.968C81.7256 132.648 82.1176 132.288 82.5336 131.888C82.9656 131.472 83.3496 131.088 83.6856 130.736C84.0376 130.384 84.2696 130.136 84.3816 129.992C84.4136 129.96 84.4456 129.928 84.4776 129.896C84.5256 129.848 84.5736 129.824 84.6216 129.824C84.7336 129.824 84.7896 129.88 84.7896 129.992C84.7896 130.056 84.6616 130.248 84.4056 130.568C84.1496 130.872 83.8296 131.232 83.4456 131.648C83.0616 132.048 82.6696 132.448 82.2696 132.848C81.8696 133.232 81.5176 133.56 81.2136 133.832C80.9256 134.088 80.7416 134.216 80.6616 134.216ZM93.2245 134.288C93.0485 134.288 92.8405 134.216 92.6005 134.072C92.3605 133.944 92.1445 133.784 91.9525 133.592C91.7765 133.384 91.6885 133.176 91.6885 132.968C91.6885 132.696 91.8005 132.352 92.0245 131.936C92.2485 131.52 92.5205 131.088 92.8405 130.64C93.1765 130.192 93.4965 129.776 93.8005 129.392C94.1205 128.992 94.3765 128.672 94.5685 128.432C94.7925 128.144 94.8965 127.984 94.8805 127.952C94.8645 127.904 94.8565 127.856 94.8565 127.808C94.4085 128.032 93.9045 128.368 93.3445 128.816C92.7845 129.248 92.2485 129.704 91.7365 130.184C91.2245 130.664 90.8085 131.096 90.4885 131.48C90.2645 131.736 90.0485 132.008 89.8405 132.296C89.6485 132.568 89.4565 132.848 89.2645 133.136C89.1525 133.296 89.0085 133.464 88.8325 133.64C88.6725 133.816 88.4885 133.904 88.2805 133.904C88.1685 133.904 88.0645 133.864 87.9685 133.784C87.8885 133.704 87.8485 133.608 87.8485 133.496C87.8485 133.272 87.9925 132.936 88.2805 132.488C88.5845 132.024 88.8965 131.52 89.2165 130.976C89.4245 130.624 89.6485 130.264 89.8885 129.896C90.1445 129.512 90.3605 129.168 90.5365 128.864C90.7285 128.56 90.8245 128.352 90.8245 128.24H90.8005C90.7525 128.24 90.6405 128.28 90.4645 128.36C90.3045 128.44 90.2165 128.488 90.2005 128.504C89.4165 129.032 88.6645 129.688 87.9445 130.472C87.2405 131.256 86.5925 132 86.0005 132.704C85.8885 132.848 85.7685 133 85.6405 133.16C85.5125 133.304 85.3845 133.448 85.2565 133.592C85.1925 133.656 85.1045 133.712 84.9925 133.76C84.8805 133.792 84.7765 133.808 84.6805 133.808C84.5845 133.808 84.4485 133.776 84.2725 133.712C84.1125 133.648 84.0325 133.536 84.0325 133.376C84.0325 133.184 84.1205 132.904 84.2965 132.536C84.4725 132.168 84.6885 131.752 84.9445 131.288C85.2165 130.824 85.4965 130.368 85.7845 129.92C86.0885 129.456 86.3605 129.04 86.6005 128.672C86.8565 128.288 87.0405 128.008 87.1525 127.832C86.6565 128.264 86.2085 128.664 85.8085 129.032C85.4245 129.384 84.9845 129.864 84.4885 130.472C84.4565 130.504 84.3925 130.568 84.2965 130.664C84.2005 130.76 84.1045 130.816 84.0085 130.832C83.9765 130.832 83.9365 130.808 83.8885 130.76C83.8565 130.712 83.8485 130.672 83.8645 130.64C83.8805 130.56 83.9925 130.4 84.2005 130.16C84.4085 129.904 84.6645 129.616 84.9685 129.296C85.2725 128.976 85.5765 128.656 85.8805 128.336C86.1845 128.016 86.4485 127.736 86.6725 127.496C86.9125 127.256 87.0565 127.104 87.1045 127.04C87.4565 126.672 87.7685 126.376 88.0405 126.152C88.3285 125.928 88.6005 125.816 88.8565 125.816C89.0005 125.816 89.1685 125.88 89.3605 126.008C89.5525 126.136 89.6485 126.288 89.6485 126.464C89.6485 126.528 89.6325 126.568 89.6005 126.584C88.8805 127.176 88.2405 127.856 87.6805 128.624C87.1205 129.376 86.5925 130.128 86.0965 130.88C86.0805 130.896 86.0245 130.984 85.9285 131.144C85.8485 131.304 85.7525 131.48 85.6405 131.672C85.5285 131.864 85.4325 132.032 85.3525 132.176C85.2725 132.32 85.2405 132.384 85.2565 132.368C86.1045 131.568 86.9925 130.72 87.9205 129.824C88.8645 128.912 89.7765 128.088 90.6565 127.352C90.7845 127.24 90.9285 127.144 91.0885 127.064C91.2485 126.984 91.4165 126.944 91.5925 126.944C91.7845 126.944 91.9365 127.008 92.0485 127.136C92.1765 127.248 92.2405 127.4 92.2405 127.592C92.2405 127.8 92.1765 128.008 92.0485 128.216C91.9205 128.424 91.8005 128.616 91.6885 128.792C91.5285 129.08 91.3525 129.368 91.1605 129.656C90.9845 129.944 90.8565 130.176 90.7765 130.352C91.5125 129.696 92.2165 129.064 92.8885 128.456C93.5605 127.832 94.2405 127.296 94.9285 126.848C95.0885 126.736 95.2805 126.68 95.5045 126.68C95.6485 126.68 95.8325 126.704 96.0565 126.752C96.2965 126.8 96.5045 126.872 96.6805 126.968C96.8725 127.064 96.9685 127.2 96.9685 127.376C96.9685 127.472 96.9365 127.568 96.8725 127.664C96.8085 127.744 96.7365 127.816 96.6565 127.88L95.5285 128.84C95.3205 129.032 95.0645 129.304 94.7605 129.656C94.4725 129.992 94.1845 130.368 93.8965 130.784C93.6245 131.184 93.3925 131.6 93.2005 132.032C93.0245 132.464 92.9365 132.864 92.9365 133.232C92.9365 133.456 92.9925 133.568 93.1045 133.568C93.1685 133.568 93.2405 133.552 93.3205 133.52C93.4005 133.472 93.4885 133.424 93.5845 133.376C93.9205 133.184 94.2805 132.904 94.6645 132.536C95.0485 132.168 95.4245 131.776 95.7925 131.36C96.1765 130.944 96.5125 130.576 96.8005 130.256C97.0885 129.936 97.3045 129.736 97.4485 129.656C97.4805 129.624 97.5205 129.616 97.5685 129.632C97.6325 129.648 97.6645 129.68 97.6645 129.728C97.6645 129.792 97.6325 129.864 97.5685 129.944C97.5045 130.024 97.4565 130.088 97.4245 130.136C97.1525 130.456 96.8965 130.768 96.6565 131.072C96.4325 131.36 96.1765 131.664 95.8885 131.984C95.5525 132.368 95.1765 132.776 94.7605 133.208C94.3605 133.624 93.9365 133.96 93.4885 134.216C93.4245 134.264 93.3365 134.288 93.2245 134.288ZM97.6482 134.264C97.1842 134.264 96.8402 134.08 96.6162 133.712C96.3922 133.328 96.2802 132.936 96.2802 132.536C96.2802 131.992 96.4242 131.408 96.7122 130.784C97.0002 130.144 97.3442 129.536 97.7442 128.96C98.1602 128.384 98.5282 127.912 98.8482 127.544C98.9282 127.448 99.0322 127.4 99.1602 127.4C99.3042 127.4 99.4482 127.456 99.5922 127.568C99.9282 127.328 100.312 127.112 100.744 126.92C101.192 126.728 101.624 126.632 102.04 126.632C102.76 126.632 103.12 127 103.12 127.736C103.12 128.44 102.944 129.088 102.592 129.68C102.256 130.272 101.88 130.848 101.464 131.408C101.352 131.552 101.24 131.688 101.128 131.816C101.032 131.944 100.92 132.072 100.792 132.2C101.496 132.008 102.112 131.688 102.64 131.24C103.168 130.792 103.688 130.328 104.2 129.848C104.264 129.784 104.32 129.736 104.368 129.704C104.432 129.656 104.512 129.632 104.608 129.632C104.688 129.632 104.728 129.688 104.728 129.8C104.728 129.816 104.704 129.856 104.656 129.92C104.608 129.984 104.576 130.032 104.56 130.064C104.032 130.704 103.376 131.304 102.592 131.864C101.824 132.408 101.016 132.744 100.168 132.872C99.8642 133.176 99.4802 133.488 99.0162 133.808C98.5522 134.112 98.0962 134.264 97.6482 134.264ZM99.5202 132.368C99.5842 132.368 99.6402 132.368 99.6882 132.368C99.7522 132.368 99.8162 132.36 99.8802 132.344C100.2 131.96 100.528 131.504 100.864 130.976C101.216 130.448 101.512 129.904 101.752 129.344C101.992 128.768 102.112 128.248 102.112 127.784C102.112 127.496 101.976 127.352 101.704 127.352C101.432 127.352 101.12 127.432 100.768 127.592C100.416 127.752 100.12 127.92 99.8802 128.096V128.168C99.8802 128.328 99.7522 128.56 99.4962 128.864C99.2562 129.152 98.9922 129.448 98.7042 129.752C98.4322 130.056 98.2322 130.312 98.1042 130.52C98.0562 131.048 98.1602 131.488 98.4162 131.84C98.6722 132.192 99.0402 132.368 99.5202 132.368ZM97.6722 133.856C97.9762 133.856 98.2722 133.744 98.5602 133.52C98.8642 133.296 99.1202 133.088 99.3282 132.896C98.9442 132.864 98.5922 132.736 98.2722 132.512C97.9682 132.272 97.6882 132.008 97.4322 131.72C97.3842 131.816 97.3202 132 97.2402 132.272C97.1602 132.544 97.1202 132.816 97.1202 133.088C97.1202 133.296 97.1602 133.48 97.2402 133.64C97.3202 133.784 97.4642 133.856 97.6722 133.856ZM106.263 134.288C106.007 134.288 105.735 134.16 105.447 133.904C105.175 133.632 105.039 133.368 105.039 133.112C105.039 132.792 105.151 132.432 105.375 132.032C105.599 131.616 105.863 131.216 106.167 130.832C106.471 130.448 106.735 130.12 106.959 129.848C107.183 129.56 107.295 129.368 107.295 129.272V129.224C107.151 129.096 107.015 128.976 106.887 128.864C106.759 128.736 106.583 128.672 106.359 128.672C106.199 128.672 105.991 128.768 105.735 128.96C105.495 129.152 105.247 129.376 104.991 129.632C104.735 129.888 104.503 130.128 104.295 130.352C104.087 130.576 103.935 130.728 103.839 130.808C103.775 130.872 103.711 130.912 103.647 130.928C103.599 130.944 103.559 130.952 103.527 130.952C103.463 130.952 103.431 130.92 103.431 130.856C103.431 130.792 103.463 130.728 103.527 130.664C103.783 130.328 104.079 129.984 104.415 129.632C104.751 129.28 105.055 128.96 105.327 128.672C105.599 128.368 105.759 128.152 105.807 128.024C105.935 127.656 106.063 127.328 106.191 127.04C106.335 126.752 106.559 126.48 106.863 126.224C106.991 126.096 107.143 125.992 107.319 125.912C107.495 125.832 107.671 125.792 107.847 125.792C108.007 125.792 108.135 125.84 108.231 125.936C108.343 126.016 108.399 126.144 108.399 126.32C108.399 126.512 108.311 126.704 108.135 126.896C107.975 127.088 107.783 127.272 107.559 127.448C107.335 127.608 107.135 127.752 106.959 127.88C106.799 128.008 106.727 128.112 106.743 128.192C106.839 128.256 107.023 128.336 107.295 128.432C107.583 128.528 107.783 128.576 107.895 128.576C108.023 128.576 108.143 128.552 108.255 128.504C108.367 128.456 108.479 128.432 108.591 128.432C108.751 128.432 108.911 128.48 109.071 128.576C109.231 128.672 109.311 128.816 109.311 129.008C109.311 129.168 109.247 129.32 109.119 129.464C109.007 129.592 108.887 129.704 108.759 129.8C108.567 129.944 108.311 130.16 107.991 130.448C107.671 130.736 107.343 131.056 107.007 131.408C106.687 131.76 106.407 132.112 106.167 132.464C105.943 132.8 105.831 133.096 105.831 133.352C105.831 133.416 105.847 133.48 105.879 133.544C105.895 133.56 105.927 133.568 105.975 133.568C106.295 133.568 106.655 133.424 107.055 133.136C107.455 132.848 107.855 132.496 108.255 132.08C108.671 131.664 109.055 131.256 109.407 130.856C109.775 130.44 110.087 130.12 110.343 129.896C110.375 129.864 110.415 129.832 110.463 129.8C110.511 129.768 110.559 129.752 110.607 129.752C110.687 129.752 110.727 129.808 110.727 129.92C110.727 129.984 110.615 130.144 110.391 130.4C110.183 130.656 109.911 130.96 109.575 131.312C109.239 131.664 108.887 132.024 108.519 132.392C108.167 132.76 107.839 133.088 107.535 133.376C107.231 133.648 107.015 133.84 106.887 133.952C106.711 134.096 106.583 134.184 106.503 134.216C106.423 134.264 106.343 134.288 106.263 134.288Z" fill="url(#paint1_linear_4_22)"/>
<rect x="47" y="68" width="155" height="1" rx="0.5" fill="#ACACAC"/>
<rect x="47" y="110" width="145" height="1" rx="0.5" fill="#ACACAC"/>
<rect x="47" y="89" width="255" height="1" rx="0.5" fill="#ACACAC"/>
<defs>
<linearGradient id="paint0_linear_4_22" x1="404" y1="9.29924e-06" x2="154.874" y2="350.067" gradientUnits="userSpaceOnUse">
<stop stop-color="white"/>
<stop offset="1" stop-color="#A3A3A3"/>
</linearGradient>
<linearGradient id="paint1_linear_4_22" x1="47" y1="89" x2="281" y2="89" gradientUnits="userSpaceOnUse">
<stop stop-color="#383838"/>
<stop offset="1" stop-color="#7D7D7D"/>
</linearGradient>
</defs>
</svg>
